<svg version="1.1" id="Layer_1" xmlns="http://www.w3.org/2000/svg" xmlns:xlink="http://www.w3.org/1999/xlink" x="0px" y="0px"
	 viewBox="0 0 22 22" style="enable-background:new 0 0 22 22;" xml:space="preserve">
<style type="text/css">
	.st0{fill:none;stroke:#3372BF;stroke-width:0.8;stroke-linecap:round;stroke-miterlimit:10;}
	.st1{fill:#FFFFFF;stroke:#FFFFFF;stroke-width:0.2;stroke-miterlimit:10;}
	.st2{fill:none;stroke:#FFFFFF;stroke-width:0.8;stroke-linecap:round;stroke-linejoin:round;stroke-miterlimit:10;}
	.st3{fill:#FFFFFF;}
	.st4{fill:none;stroke:#FFFFFF;stroke-width:0.7273;stroke-linecap:round;stroke-linejoin:round;stroke-miterlimit:10;}
	.st5{fill:#3372BF;stroke:#FFFFFF;stroke-width:0.4545;stroke-linecap:round;stroke-linejoin:round;stroke-miterlimit:10;}
	.st6{fill:none;stroke:#FFFFFF;stroke-width:0.4545;stroke-linecap:round;stroke-linejoin:round;stroke-miterlimit:10;}
	.st7{fill:none;stroke:#FFFFFF;stroke-width:0.787;stroke-linecap:round;stroke-linejoin:round;stroke-miterlimit:10;}
	.st8{fill:#2473D5;}
	.st9{fill:#E8F1FA;stroke:#E8F1FA;stroke-width:0.22;stroke-miterlimit:10;}
	.st10{fill:#3372BF;}
	.st11{fill:none;stroke:#E8F1FA;stroke-width:0.8754;stroke-miterlimit:10;}
	.st12{fill:none;stroke:#E8F1FA;stroke-width:0.853;stroke-linecap:round;stroke-linejoin:round;stroke-miterlimit:10;}
	.st13{fill:none;}
	.st14{fill:#E8F1FA;}
	.st15{fill:none;stroke:#3372BF;stroke-width:2.0624;stroke-linecap:round;stroke-linejoin:round;stroke-miterlimit:10;}
	.st16{fill:none;stroke:#3372BF;stroke-width:2.0288;stroke-linecap:round;stroke-linejoin:round;stroke-miterlimit:10;}
	.st17{fill:#3372BF;stroke:#3372BF;stroke-width:0.5449;stroke-miterlimit:10;}
	.st18{fill:none;stroke:#3372BF;stroke-width:2.1416;stroke-linecap:round;stroke-linejoin:round;stroke-miterlimit:10;}
</style>
<g>
	<g>
		<path class="st2" d="M1.8,16h12.9c0.2,0,0.3-0.1,0.5-0.2l1.2-0.8c0.9-0.6,1.9-0.9,2.9-0.9h0.2c0.3,0,0.6-0.1,0.8-0.4l0.8-0.8
			c0,0-1-1.2-2.3-1.1s-2.4,1-2.4,1"/>
		<line class="st2" x1="0.8" y1="13.5" x2="7.8" y2="13.5"/>
		<path class="st2" d="M1.8,16c0,0-0.6-2.5,0.5-3.8C3,11.3,4.1,11,4.1,11h6.6c0,0-0.5,1.4,0,2.1c0.5,0.7,1.1,1.1,2,1.1
			c0.6,0,1.1-0.2,1.4-0.4c0.3-0.2,0.4-0.4,0.4-0.7V9.5c0,0,0-1.4,0.8-1.6c0.7-0.2,1.8,0.9,2.3,3.3"/>
		<path class="st2" d="M7.5,16.1c0,1.3-1,2.3-2.3,2.3S3,17.4,3,16.1"/>
		<path class="st2" d="M19.7,14.2c0.6,0.5,1,1.3,0.9,2.2c-0.1,1.3-1.4,2.3-2.7,2.2c-1.3-0.1-2.3-1.4-2.2-2.8"/>
		<path class="st2" d="M10.1,11H5.4c-0.6,0-1-0.5-1-1V9.7c0-0.6,0.5-1,1-1h4.8c0.6,0,1,0.5,1,1v0.3C11.2,10.5,10.7,11,10.1,11z"/>
		<path class="st2" d="M6.9,8.5H4.1C3.5,8.5,3,7.9,3,7.3V4.5c0-0.6,0.5-1.1,1.1-1.1h2.8C7.5,3.4,8,3.9,8,4.5v2.8
			C8,7.9,7.5,8.5,6.9,8.5z"/>
		<path class="st2" d="M13.3,4.8l1.5-0.3c0,0,1.5,0.7,1.5,1.6s-0.1,1.8-0.1,1.8l0.4,0.5c0,0,1.5,0,1.6-0.1c0.2-0.2,0.2-2.6,0-2.7
			c-0.6,0-1.7,0.2-1.7,0.2"/>
	</g>
</g>
</svg>
